<!DOCTYPE svg PUBLIC "-//W3C//DTD SVG 1.1//EN" "http://www.w3.org/Graphics/SVG/1.1/DTD/svg11.dtd">
<!-- Uploaded to: SVG Repo, www.svgrepo.com, Transformed by: SVG Repo Mixer Tools -->
<svg height="120px" width="120px" version="1.1" id="Layer_1" xmlns="http://www.w3.org/2000/svg" xmlns:xlink="http://www.w3.org/1999/xlink" viewBox="0 0 510.26 510.26" xml:space="preserve" fill="#BC4584" stroke="#BC4584" stroke-width="3.5718480000000006">
<g id="SVGRepo_bgCarrier" stroke-width="0"/>
<g id="SVGRepo_tracerCarrier" stroke-linecap="round" stroke-linejoin="round"/>
<g id="SVGRepo_iconCarrier"> <g> <path style="fill:#FDDCE5;" d="M145.79,81.573c-2.603,0-5.207-0.868-6.942-3.471c-3.471-3.471-2.603-9.546,0.868-12.149 c10.414-8.678,15.62-16.488,16.488-24.298c0-7.81-4.339-16.488-14.753-26.902c-3.471-3.471-3.471-8.678,0-12.149 c3.471-3.471,8.678-3.471,12.149,0c13.885,13.885,20.827,26.902,19.959,39.919s-7.81,25.166-22.563,36.447 C149.261,80.705,147.525,81.573,145.79,81.573"/> <path style="fill:#FDDCE5;" d="M332.366,301.125l78.97-78.969L296.786,107.607l-68.556,68.556L332.366,301.125z"/> <path style="fill:#FDDCE5;" d="M186.576,216.949l-87.647,88.515l114.549,114.549l98.929-98.929L186.576,216.949z"/> </g> <g> <path style="fill:#FDDCE5CDCDCD;" d="M485.966,227.363l-73.763-5.207L296.786,107.607l-5.207-73.763c0-2.603,0.868-5.207,2.603-7.81 l6.075-6.075c3.471-3.471,9.546-3.471,13.885,0L498.983,204.8c3.471,3.471,3.471,9.546,0,13.885l-6.075,6.075 C491.173,226.495,488.569,227.363,485.966,227.363"/> <path style="fill:#FDDCE5CDCDCD;" d="M24.298,300.258l73.763,5.207L212.61,420.014l5.207,73.763c0,2.603-0.868,5.207-2.603,7.81 l-6.075,6.075c-3.471,3.471-9.546,3.471-13.885,0L11.281,322.82c-3.471-3.471-3.471-9.546,0-13.885l6.075-5.207 C19.092,301.125,21.695,300.258,24.298,300.258"/> </g> <g> <path style="fill:#FDDCE5D7A645;" d="M257.736,146.658l-14.753,14.753l130.169,20.827l-8.678-6.942l-10.414-10.414L257.736,146.658z"/> <path style="fill:#FDDCE5D7A645;" d="M257.736,211.742l5.207,6.942l125.831,26.034l14.753-14.753l-160.542-30.373L257.736,211.742z"/> <path style="fill:#FDDCE5D7A645;" d="M129.302,275.092l167.485,62.481l13.885-13.885l-167.485-62.481L129.302,275.092z"/> <path style="fill:#FDDCE5D7A645;" d="M103.268,309.803l17.356,17.356l137.98,47.729l13.885-13.885l-166.617-57.275L103.268,309.803z"/> </g> <path style="fill:#FDDCE5E6E6E6;" d="M72.027,60.746c-16.488,16.488-16.488,44.258,0,61.614l355.797,294.183L132.773,60.746 C116.285,43.39,88.515,43.39,72.027,60.746"/> <path style="fill:#FDDCE5CDCDCD;" d="M126.698,124.963c-2.603,0-4.339-0.868-6.075-2.603L96.325,98.061c-3.471-3.471-3.471-8.678,0-12.149 s8.678-3.471,12.149,0l24.298,24.298c3.471,3.471,3.471,8.678,0,12.149C131.037,124.095,129.302,124.963,126.698,124.963"/> <path style="fill:#FDDCE5;" d="M102.4,229.098c-13.885,0-26.902-5.207-36.447-15.62c-9.546-9.546-15.62-22.563-15.62-36.447 c0-13.885,5.207-26.902,15.62-36.447l42.522-43.39c3.471-3.471,8.678-3.471,12.149,0s3.471,8.678,0,12.149l-42.522,43.39 c-6.942,6.942-10.414,15.62-10.414,24.298s3.471,18.224,10.414,24.298c6.942,6.942,15.62,10.414,24.298,10.414 s18.224-3.471,24.298-10.414l18.224-18.224c3.471-3.471,8.678-3.471,12.149,0c3.471,3.471,3.471,8.678,0,12.149l-18.224,19.092 C129.302,223.892,116.285,229.098,102.4,229.098"/> </g>
</svg>